<svg xmlns="http://www.w3.org/2000/svg" viewBox="0 0 16.46 10.85"><title>arrow</title><g id="Layer_2" data-name="Layer 2"><g id="Layer_1-2" data-name="Layer 1"><path d="M16.37,8.3c0,.13.05.24.07.34a1.42,1.42,0,0,1,0,.29,1.7,1.7,0,0,1-.69,1.37,2.57,2.57,0,0,1-1.61.55,2.26,2.26,0,0,1-.79-.1,1.57,1.57,0,0,1-.58-.43,9.75,9.75,0,0,1-.79-1,20,20,0,0,0-1.49-1.77A22.79,22.79,0,0,1,8.06,4.85,11.44,11.44,0,0,0,7,6c-.39.45-.82,1-1.3,1.59l-2.45,3a1.1,1.1,0,0,1-.81.29,2.92,2.92,0,0,1-.67-.1A4.36,4.36,0,0,1,1,10.49,2.1,2.1,0,0,1,.29,10,.92.92,0,0,1,0,9.36a2.66,2.66,0,0,1,.34-1.3,11.39,11.39,0,0,1,1.1-1.58q.77-1,2-2.4T6.62.34A3.72,3.72,0,0,1,8,0,2.2,2.2,0,0,1,9.58.77,15.92,15.92,0,0,0,11.47,2.4a1.64,1.64,0,0,0,.41.72c.21.22.46.51.74.86l1.3,1.44,1.15,1.35C15.49,7.25,15.92,7.76,16.37,8.3Z"/></g></g></svg>