<svg xmlns="http://www.w3.org/2000/svg" viewBox="0 0 117.35 57.86"><title>Rock</title><g id="Layer_2" data-name="Layer 2"><g id="Layer_1-2" data-name="Layer 1"><path d="M.58,21.75c.51.24,12.22,5.65,21.19,6.44a4,4,0,0,0,1.79,3.38,3.71,3.71,0,0,0,4.71-.28,6.28,6.28,0,0,0,1.35-1.57c.05-.09.24-.47.53-1.06,3.4,1,28.88,8.81,32.76,11,2.25,1.25,5.47,4,8.57,6.76A87.91,87.91,0,0,0,79,52.47c4.39,3,13.74,7.63,17.78,4.16A2.85,2.85,0,0,0,97.91,54c-.35-2.22-3.56-3.74-7.1-5.23l-1-.45A13.57,13.57,0,0,1,86,45.59c1-.05,3.26.81,5.12,1.51a33.32,33.32,0,0,0,7.22,2.15c.68.08,1.37.18,2.07.28,4.6.63,9.36,1.29,10.51-1.68a3.27,3.27,0,0,0,0-2.64,5.48,5.48,0,0,0-3.14-2.45c-.12,0-11.83-2.58-16.32-4.57A3.6,3.6,0,0,1,90.5,37c1.07.14,2.64.21,4.58.3a112.35,112.35,0,0,1,12.68,1.09c4.22.66,7.1.21,8.58-1.36a3.73,3.73,0,0,0,1-3,3.86,3.86,0,0,0-.87-3c-1.3-1.5-4-2.26-8.62-2.4-5.94-.18-15.67-1.32-17.27-2.53.49-.28,2.14-.67,7.61-.36l.36,0c1.11.06,13.63-.55,15.15-4.53a3.93,3.93,0,0,0-.67-3.95c-1.5-1.85-4.46-2.68-7.71-2.17-1,.16-2.42.43-4,.73-4.86.92-12.19,2.31-16,2a10.62,10.62,0,0,1-1.89-.26c.89-.56,5.18-3.24,7.83-4.66,1.64-.87,5.42-3.17,5.24-5.6-.09-1.18-1-2.08-2.69-2.68C85.58,1.78,74.38,13.14,72.81,14.8,68.91,16,50,10,38.69,5.89a10.7,10.7,0,0,0,.08-1.74A5.56,5.56,0,0,0,36,.22a2.38,2.38,0,0,0-2.57.37A4.72,4.72,0,0,0,32.2,2.31c-.16.34-.36.78-.58,1.29-1.34-.34-4-.86-9.73-1.91a1,1,0,0,0-.82.21,1,1,0,0,0-.35.59,1,1,0,0,0,.8,1.16c3.56.66,7.46,1.42,9.28,1.81-2.78,6.37-7.73,18.2-8.16,19.23A6.77,6.77,0,0,0,22,26.21C13.4,25.47,1.54,20,1.42,19.94a1,1,0,0,0-1.06.13,1.06,1.06,0,0,0-.27.35A1,1,0,0,0,.58,21.75Zm53-8.8C70.22,18,72.88,17,73.75,16.59a.94.94,0,0,0,.35-.25c.12-.12,11.6-12.4,19-9.8,1,.34,1.34.71,1.36.94.06.77-1.82,2.43-4.18,3.69-3,1.61-7.91,4.7-8.1,4.82A2,2,0,0,0,81,18.07c.32,1.33,2.25,1.65,4.09,1.78,4.08.3,11.27-1.07,16.53-2.06,1.59-.3,3-.56,4-.72,3.06-.48,5.06.48,5.85,1.45a1.94,1.94,0,0,1,.35,2c-.76,2-10,3.41-13.17,3.24l-.36,0c-4.85-.27-8.31-.17-9.43,1.23a1.76,1.76,0,0,0-.31,1.63c1,3.44,18.49,4,19.23,4,3.88.12,6.29.69,7.17,1.71a1.9,1.9,0,0,1,.38,1.57.86.86,0,0,0,0,.32,1.68,1.68,0,0,1-.47,1.42c-.56.58-2.2,1.46-6.78.73a115.46,115.46,0,0,0-12.91-1.11c-2-.09-3.62-.16-4.6-.31A1.71,1.71,0,0,0,88.44,36c-.4,1.39,1.19,3.56,2.09,4,4.72,2.09,16.27,4.61,16.66,4.69A3.52,3.52,0,0,1,109,46.07a1.23,1.23,0,0,1,0,1c-.59,1.51-5.09.88-8.37.43-.72-.1-1.42-.2-2.1-.28a32.71,32.71,0,0,1-6.76-2c-3-1.14-5.4-2-6.87-1.43a1.65,1.65,0,0,0-1.13,1.52c0,2.26,5.1,4.78,5.15,4.8l1.08.46c1.71.72,5.7,2.4,5.9,3.7,0,.24-.13.52-.5.84-2.75,2.36-10.61-1.1-15.35-4.3a87.89,87.89,0,0,1-7.28-5.94c-3.19-2.78-6.48-5.64-8.92-7-4-2.23-28.36-9.68-32.84-11,2.13-4.44,6-13,7.32-18.95C40.23,8.56,46.69,10.86,53.54,13ZM24.41,25.6a.31.31,0,0,0,.05-.1c.07-.16,5.93-14.15,8.64-20.3h0c.37-.85.68-1.56.91-2.05a3,3,0,0,1,.69-1,.41.41,0,0,1,.49-.08,3.76,3.76,0,0,1,1.58,2.21c.35,6.3-8.84,24.37-8.9,24.5a5.13,5.13,0,0,1-.88,1,1.73,1.73,0,0,1-2.32.15,2.35,2.35,0,0,1-.86-2.54s0,0,0-.05h0A6.41,6.41,0,0,1,24.41,25.6Z"/></g></g></svg>