<svg xmlns="http://www.w3.org/2000/svg" viewBox="0 0 109.9 51.91"><title>Rock</title><g id="Layer_2" data-name="Layer 2"><g id="Layer_1-2" data-name="Layer 1"><path d="M6.5,1.57a1,1,0,0,0,.16.63,1,1,0,0,0,.75.45A90.1,90.1,0,0,0,19,2.92a10,10,0,0,1,4.13.62,12.26,12.26,0,0,0,4.84.7A79.57,79.57,0,0,0,18.39,21l-.16.46a23.49,23.49,0,0,0-.81,2.69c-1.84-1.74-4.85-4-7.81-3.63a22.53,22.53,0,0,1-8.3-1A1,1,0,0,0,.16,21a1,1,0,0,0,.53.4,24.45,24.45,0,0,0,9.17,1c2.86-.35,6.43,3.16,7.7,4.68a4.85,4.85,0,0,0,.57,1.17,10.36,10.36,0,0,0,2.33,2.41,3.47,3.47,0,0,0,3.44.78c1.89-.68,2.91-3.17,3.36-4.6C34,28.72,64.6,39.32,67.31,40.26,75.72,47.8,83.42,50,91.23,51.64a8.52,8.52,0,0,0,7.35-1.39A5.54,5.54,0,0,0,100.75,46a2.24,2.24,0,0,0-.63-1.42c3.41-.51,4.76-2.24,5.28-3.39a5.1,5.1,0,0,0-.76-5.41,4.8,4.8,0,0,0-1.09-.78c2.11-.52,4.28-1.7,4.54-4.35a5.25,5.25,0,0,0-2.31-5.06,7.61,7.61,0,0,0,3.5-2.67,3.94,3.94,0,0,0,.47-3.18c-.78-3-3.88-3.7-6.24-3.77a4.87,4.87,0,0,0-2.09-4.38C95.81,7.93,80.6,16.3,78,17.76c-9.57.58-23.85-3.22-41.36-11L37.54,5a1.1,1.1,0,0,0,.09-.51,7,7,0,0,0-1-2.87C36.14.77,34.59-.94,31.61.66A8.13,8.13,0,0,0,30,1.94a1,1,0,0,0-.24,0,10,10,0,0,1-6-.33A11.88,11.88,0,0,0,18.81.93,94.08,94.08,0,0,1,7.58.66,1,1,0,0,0,6.5,1.57ZM68.16,38.44C66.76,38,35.68,27.15,28,25L35.82,8.57C54,16.67,68.36,20.43,78.4,19.74a1,1,0,0,0,.44-.13c4.6-2.66,17.45-9,21.49-6.36A3,3,0,0,1,101.51,16c-.44,0-.74.1-.79.11a.93.93,0,0,0-.57.34l-8,1.84a1,1,0,1,0,.45,1.94L102.55,18c1.82-.07,4.72.16,5.27,2.26a2,2,0,0,1-.23,1.61c-1,1.54-3.84,2.41-4.87,2.62a1,1,0,0,0-.81,1,1,1,0,0,0,.83,1c.38.07,3.68.76,3.35,4s-6.58,2.92-6.64,2.92a1,1,0,0,0-1,.81,1,1,0,0,0,.67,1.14,15.39,15.39,0,0,1,4.12,1.83,3.08,3.08,0,0,1,.39,3.2c-.77,1.69-3.06,2.53-6.45,2.36a1,1,0,0,0-.47,1.9,5.77,5.77,0,0,1,2.11,1.48,3.64,3.64,0,0,1-1.46,2.61,6.59,6.59,0,0,1-5.66,1C84.08,48,76.6,46,68.5,38.64A.9.9,0,0,0,68.16,38.44Zm-35.61-36c1.69-.9,2.2-.12,2.45.25a4.77,4.77,0,0,1,.6,1.7L34.42,6.85h0L25.64,25.29a1.42,1.42,0,0,0-.07.22c-.26,1.16-1.17,3.71-2.35,4.13-.15.06-.63.23-1.52-.48a8.27,8.27,0,0,1-1.9-1.92c-.92-1.4-.56-2.59.32-5.15l.16-.46C21.55,18,28.81,4.44,32.55,2.42Z"/></g></g></svg>