<svg xmlns="http://www.w3.org/2000/svg" viewBox="0 0 113.81 47.92"><title>Scissors</title><g id="Layer_2" data-name="Layer 2"><g id="Layer_1-2" data-name="Layer 1"><path d="M.52,19.83a22.23,22.23,0,0,0,7.72,2.4c3.71.3,5.16,1.39,5.4,1.78a4.29,4.29,0,0,0,1.95,1.51,7.12,7.12,0,0,0,1.68,3,3.19,3.19,0,0,0,4.7.51,7,7,0,0,0,.59-.49c5.15.89,33,6.16,36.64,6.84a34,34,0,0,0,20,12.36c2.15.39,3.79,0,4.88-1.12,1.38-1.43,1.41-3.68,1.29-5a4.87,4.87,0,0,0,3.13-2.24,5.46,5.46,0,0,0,.64-3.1,124.52,124.52,0,0,0,12.79,4.74c2.07.69,4,1.34,5.74,2,3.54,1.28,5,.34,5.7-.68,1-1.52.22-3.92-1.08-5.21-1.55-1.54-5.68-3-10.46-4.72-1.28-.46-2.6-.93-3.9-1.42-2-.75-3.85-1.32-5.33-1.77l-1.18-.37c2.25-.26,5.74-.5,8.53-.7,2.31-.16,4.69-.33,6.57-.51,3.75-.35,6-1.29,6.71-2.88a3.09,3.09,0,0,0-.37-3.12c-1.68-2.56-7.67-2.59-10.17-2.48-2.9.12-8.86.62-13.88,1.07a4.25,4.25,0,0,0,1.79-1.82,2.21,2.21,0,0,0-.25-2.13c-1.94-2.86-6-3.37-12.14-1.53a50.14,50.14,0,0,0-8,3.29c-9.39.84-20.68-4-28.94-7.51l-2.83-1.2a3.85,3.85,0,0,0-1-3,3.52,3.52,0,0,0-3.37-.59c-.9-.58-2.44-.57-4.17-.56a13,13,0,0,1-2.26-.1c-2-.45-7.15-3.73-9-5a1,1,0,0,0-1.15,0,1.14,1.14,0,0,0-.24.25,1,1,0,0,0,.27,1.39c.71.47,7,4.64,9.64,5.25a13.73,13.73,0,0,0,2.72.15c.33,0,.75,0,1.18,0l-1,.68A74.72,74.72,0,0,0,17.71,20.05l-.24.34a13,13,0,0,0-1.72,2.94,1.32,1.32,0,0,1-.4-.37c-.89-1.43-3.48-2.45-6.94-2.72a20.23,20.23,0,0,1-6.93-2.17,1,1,0,0,0-1.07.07,1.32,1.32,0,0,0-.29.33A1,1,0,0,0,.52,19.83ZM70.59,20a1.15,1.15,0,0,0,.37-.12c4-2.13,14.86-6.74,17.73-2.49.1.14.08.19.06.24C88.29,18.78,84,20.31,80.32,21a1,1,0,0,0,.29,2c.16,0,16.69-1.61,22.17-1.84,4.22-.18,7.68.47,8.41,1.58a1.21,1.21,0,0,1,.24,1.15c-.15.32-1,1.38-5.1,1.76-1.86.17-4.23.34-6.52.5-10.77.76-11.7,1-12.11,1.93a1.23,1.23,0,0,0,0,1c.39.83,1.53,1.19,4.3,2,1.46.45,3.27,1,5.22,1.74l3.92,1.42c4.18,1.49,8.5,3,9.74,4.27.75.74,1.15,2.13.79,2.71s-1.28.61-3.32-.13c-1.74-.63-3.71-1.29-5.8-2-5-1.65-10.61-3.52-14.33-5.54a1,1,0,0,0-1.14.13,1,1,0,0,0-.27,1.11s.79,2.11,0,3.55a3.43,3.43,0,0,1-2.67,1.46,1,1,0,0,0-.68.42,1,1,0,0,0-.15.79c.16.74.41,3.09-.63,4.17-.6.62-1.63.8-3.07.53a31.82,31.82,0,0,1-19-11.89,1.06,1.06,0,0,0-.62-.39c-1.26-.23-28.25-5.34-35.91-6.72a9.41,9.41,0,0,0,.51-.8L37.65,11.19l2.83,1.2C49,16,60.65,21,70.59,20ZM19.1,21.55l.25-.35A72.31,72.31,0,0,1,31.26,9.53a10.3,10.3,0,0,1,3.12-1.76c.56-.15,1.31-.26,1.67.07a2.33,2.33,0,0,1,.37,1.72L23,24.75a1,1,0,0,0-.13.18,8.9,8.9,0,0,1-2.08,2.51c-.94.69-1.46.45-2-.18a4.24,4.24,0,0,1-1.3-2.48v-.11C17.52,23.79,18.12,22.93,19.1,21.55Z"/></g></g></svg>